<?xml version="1.0" encoding="UTF-8" standalone="no"?>
<!-- Created with Inkscape (http://www.inkscape.org/) -->

<svg
   xmlns:dc="http://purl.org/dc/elements/1.1/"
   xmlns:cc="http://creativecommons.org/ns#"
   xmlns:rdf="http://www.w3.org/1999/02/22-rdf-syntax-ns#"
   xmlns:svg="http://www.w3.org/2000/svg"
   xmlns="http://www.w3.org/2000/svg"
   xmlns:sodipodi="http://sodipodi.sourceforge.net/DTD/sodipodi-0.dtd"
   xmlns:inkscape="http://www.inkscape.org/namespaces/inkscape"
   width="210mm"
   height="297mm"
   id="svg2"
   version="1.1"
   inkscape:version="0.48.1 "
   sodipodi:docname="Nouveau document 1">
  <defs
     id="defs4" />
  <sodipodi:namedview
     id="base"
     pagecolor="#ffffff"
     bordercolor="#666666"
     borderopacity="1.0"
     inkscape:pageopacity="0.0"
     inkscape:pageshadow="2"
     inkscape:zoom="0.35"
     inkscape:cx="-90.714286"
     inkscape:cy="520"
     inkscape:document-units="px"
     inkscape:current-layer="layer1"
     showgrid="false"
     inkscape:window-width="1440"
     inkscape:window-height="853"
     inkscape:window-x="-4"
     inkscape:window-y="-4"
     inkscape:window-maximized="1" />
  <metadata
     id="metadata7">
    <rdf:RDF>
      <cc:Work
         rdf:about="">
        <dc:format>image/svg+xml</dc:format>
        <dc:type
           rdf:resource="http://purl.org/dc/dcmitype/StillImage" />
        <dc:title></dc:title>
      </cc:Work>
    </rdf:RDF>
  </metadata>
  <g
     inkscape:label="Calque 1"
     inkscape:groupmode="layer"
     id="layer1">
    <path
       style="fill:#000000;stroke:none;stroke-width:1px;stroke-linecap:butt;stroke-linejoin:miter;stroke-opacity:1;fill-opacity:1"
       d="m 82.857143,186.6479 c 34.285717,40 97.142857,-30.71429 105.714287,-20 8.57143,10.71428 -65.71429,77.14285 -37.14286,108.57143 0,0 91.42857,-77.14286 154.28571,-77.14286 62.85715,0 114.28572,40 114.28572,40 0,0 48.57143,65.71428 48.57143,154.28571 0,88.57143 -49.69333,153.18778 -100,205.71429 C 174.32268,800.89667 140,752.36218 140,886.6479 c 0,134.2857 2.85714,74.28571 2.85714,74.28571 l 511.42857,0 C 629.12847,688.30251 706.46384,191.2472 531.42857,9.5050443 477.14285,-40.494958 343.57143,-91.209245 292.14286,-99.780674 c -51.42857,-8.571426 42.14285,59.285714 7.85714,75 C 231.42857,6.6478979 82.857143,186.6479 82.857143,186.6479 z"
       id="path2985"
       inkscape:connector-curvature="0"
       sodipodi:nodetypes="cscscssscccssc" />
  </g>
</svg>
